<?xml version="1.0" encoding="utf-8"?>
<!-- Generator: Adobe Illustrator 15.0.0, SVG Export Plug-In  -->
<!DOCTYPE svg PUBLIC "-//W3C//DTD SVG 1.1//EN" "http://www.w3.org/Graphics/SVG/1.1/DTD/svg11.dtd" [
	<!ENTITY ns_flows "http://ns.adobe.com/Flows/1.0/">
]>
<svg version="1.1"
	 xmlns="http://www.w3.org/2000/svg" xmlns:xlink="http://www.w3.org/1999/xlink" xmlns:a="http://ns.adobe.com/AdobeSVGViewerExtensions/3.0/"
	 x="0px" y="0px" width="138px" height="244px" viewBox="0 0 138 244" overflow="visible" enable-background="new 0 0 138 244"
	 xml:space="preserve">
<defs>
</defs>
<g>
	<defs>
		<rect id="SVGID_1_" width="137.564" height="243.577"/>
	</defs>
	<clipPath id="SVGID_2_">
		<use xlink:href="#SVGID_1_"  overflow="visible"/>
	</clipPath>
	<path clip-path="url(#SVGID_2_)" d="M68.2,0C30.555,0,0,30.584,0,68.2c0,7.154,3.44,16.539,8.58,27.6
		c5.14,11.061,12.079,23.631,19.431,36.207c14.701,25.151,31.102,50.434,37.688,62.788c0.735,1.383,2.452,1.906,3.835,1.17
		c0.497-0.265,0.904-0.672,1.169-1.17c6.571-12.353,22.966-37.635,37.663-62.785c7.349-12.576,14.289-25.147,19.428-36.208
		s8.578-20.445,8.578-27.599c0-37.617-30.554-68.2-68.172-68.2V0z M68.2,5.669c34.552,0,62.504,27.979,62.504,62.531
		c0,5.164-3.045,14.431-8.053,25.211c-5.008,10.779-11.877,23.238-19.18,35.735c-13.066,22.358-27.447,44.721-35.273,58.471
		c-7.837-13.749-22.224-36.112-35.293-58.471c-7.304-12.497-14.176-24.957-19.184-35.735C8.713,82.631,5.669,73.364,5.669,68.2
		C5.669,33.648,33.62,5.669,68.2,5.669"/>
	<path clip-path="url(#SVGID_2_)" d="M14.988,192.533c-0.542,0.023-1.065,0.201-1.509,0.513
		c-7.248,4.938-11.976,11.255-11.976,18.446c0,4.893,2.241,9.456,5.892,13.332c3.653,3.875,8.729,7.183,14.874,9.939
		c12.29,5.514,28.917,8.813,47.278,8.813c18.348,0,34.968-3.301,47.254-8.813c6.143-2.757,11.219-6.064,14.87-9.939
		c3.651-3.876,5.893-8.439,5.893-13.332c0-7.053-4.559-13.282-11.55-18.142c-1.273-0.91-3.044-0.616-3.955,0.658
		c-0.91,1.273-0.615,3.045,0.658,3.955c0.021,0.014,0.042,0.028,0.062,0.042c6.092,4.234,9.116,8.895,9.116,13.486
		c0,3.188-1.405,6.319-4.35,9.443c-2.944,3.125-7.414,6.12-13.064,8.656c-11.304,5.072-27.273,8.316-44.934,8.316
		c-17.673,0-33.652-3.245-44.958-8.316c-5.653-2.536-10.123-5.531-13.067-8.656c-2.945-3.124-4.35-6.256-4.35-9.443
		c0-4.686,3.144-9.432,9.499-13.761c1.306-0.863,1.666-2.622,0.803-3.927C16.926,192.973,15.982,192.49,14.988,192.533"/>
	<path clip-path="url(#SVGID_2_)" d="M46.821,196.356c-0.541,0.024-1.064,0.203-1.508,0.516c-3.271,2.237-5.721,5.302-5.721,9.03
		c0,2.534,1.179,4.851,2.907,6.681c1.726,1.83,4.017,3.296,6.718,4.507c5.401,2.421,12.504,3.811,20.331,3.811
		c7.826,0,14.925-1.39,20.318-3.812c2.697-1.211,4.984-2.679,6.708-4.509s2.9-4.146,2.9-6.678c0-3.656-2.363-6.679-5.519-8.895
		c-1.267-0.92-3.039-0.639-3.959,0.629s-0.638,3.04,0.629,3.959c0.023,0.018,0.048,0.034,0.072,0.051
		c2.286,1.606,3.107,3.103,3.107,4.255c0,0.827-0.342,1.712-1.358,2.791c-1.018,1.081-2.698,2.234-4.903,3.225
		c-4.409,1.98-10.857,3.313-17.996,3.313s-13.594-1.333-18.012-3.314c-2.21-0.99-3.895-2.145-4.914-3.225
		c-1.02-1.081-1.361-1.965-1.361-2.79c0-1.195,0.851-2.708,3.253-4.352c1.305-0.865,1.661-2.625,0.795-3.93
		C48.759,196.791,47.815,196.312,46.821,196.356L46.821,196.356z"/>
	<path clip-path="url(#SVGID_2_)" d="M68.2,23.442c-23.555,0-42.717,19.132-42.717,42.689c0,23.531,19.16,42.689,42.717,42.689
		c23.531,0,42.689-19.158,42.689-42.689C110.89,42.574,91.729,23.442,68.2,23.442 M68.2,29.111c20.465,0,37.02,16.527,37.02,37.02
		c0,20.462-16.557,37.02-37.02,37.02c-20.492,0-37.048-16.558-37.048-37.02C31.152,45.638,47.706,29.111,68.2,29.111"/>
</g>
</svg>
